<svg width="227" height="229" viewBox="0 0 227 229" fill="none" xmlns="http://www.w3.org/2000/svg">
<path d="M88 159C107.33 159 123 174.67 123 194C123 213.33 107.33 229 88 229C68.67 229 53 213.33 53 194C53 174.67 68.67 159 88 159ZM192 52C211.33 52 227 67.67 227 87C227 106.33 211.33 122 192 122C172.67 122 157 106.33 157 87C157 67.67 172.67 52 192 52Z" fill="#4676FF"/>
<path d="M0 117.021C5.25953 120.182 11.4172 122 18 122C37.33 122 53 106.33 53 87C53 67.67 37.33 52 18 52C11.4171 52 5.25963 53.8191 0 56.9795V0L175 0L175 175L0 175V117.021Z" fill="#4676FF"/>
</svg>
